<svg version="1.1" id="Layer_1" xmlns="http://www.w3.org/2000/svg" xmlns:xlink="http://www.w3.org/1999/xlink" x="0px" y="0px"
	 width="50px" viewBox="0 0 1200 1200" enable-background="new 0 0 1200 1200" xml:space="preserve">
<path fill="transparent" opacity="1.000000" stroke="none" 
	d="
M695.000000,1201.000000 
	C463.333344,1201.000000 232.166672,1201.000000 1.000000,1201.000000 
	C1.000000,801.000000 1.000000,401.000000 1.000000,1.000000 
	C401.000000,1.000000 801.000000,1.000000 1201.000000,1.000000 
	C1201.000000,401.000000 1201.000000,801.000000 1201.000000,1201.000000 
	C1032.500000,1201.000000 864.000000,1201.000000 695.000000,1201.000000 
M111.656387,711.499817 
	C111.656639,776.491028 111.747566,841.482483 111.625359,906.473450 
	C111.543526,949.993347 124.268280,989.155212 151.925491,1022.836609 
	C187.769180,1066.487671 234.133713,1089.934692 290.835419,1090.029541 
	C497.310089,1090.375122 703.785645,1090.176514 910.260864,1090.119629 
	C916.905884,1090.117798 923.610718,1089.872803 930.186340,1088.988037 
	C992.808594,1080.562500 1039.278564,1048.265625 1069.567627,993.079529 
	C1084.504517,965.864868 1090.425171,936.242676 1090.404907,905.190430 
	C1090.273682,705.047913 1090.341553,504.905212 1090.322021,304.762573 
	C1090.321411,298.099579 1090.275635,291.426819 1089.931641,284.775146 
	C1087.817017,243.899857 1074.118530,207.321381 1047.488159,176.225067 
	C1010.350403,132.859161 962.750732,111.515862 905.646484,111.511520 
	C702.504150,111.496086 499.361847,111.477829 296.219604,111.588715 
	C286.085297,111.594246 275.830109,112.027588 265.839630,113.592346 
	C230.855072,119.071823 199.625137,133.117737 173.177917,156.878922 
	C133.932526,192.138443 112.073906,236.094086 111.860527,289.051117 
	C111.294472,429.531982 111.660912,570.016602 111.656387,711.499817 
z"/>
<path fill="var(--text-color-two)" opacity="1.000000" stroke="none" 
	d="
M111.656387,710.999756 
	C111.660912,570.016602 111.294472,429.531982 111.860527,289.051117 
	C112.073906,236.094086 133.932526,192.138443 173.177917,156.878922 
	C199.625137,133.117737 230.855072,119.071823 265.839630,113.592346 
	C275.830109,112.027588 286.085297,111.594246 296.219604,111.588715 
	C499.361847,111.477829 702.504150,111.496086 905.646484,111.511520 
	C962.750732,111.515862 1010.350403,132.859161 1047.488159,176.225067 
	C1074.118530,207.321381 1087.817017,243.899857 1089.931641,284.775146 
	C1090.275635,291.426819 1090.321411,298.099579 1090.322021,304.762573 
	C1090.341553,504.905212 1090.273682,705.047913 1090.404907,905.190430 
	C1090.425171,936.242676 1084.504517,965.864868 1069.567627,993.079529 
	C1039.278564,1048.265625 992.808594,1080.562500 930.186340,1088.988037 
	C923.610718,1089.872803 916.905884,1090.117798 910.260864,1090.119629 
	C703.785645,1090.176514 497.310089,1090.375122 290.835419,1090.029541 
	C234.133713,1089.934692 187.769180,1066.487671 151.925491,1022.836609 
	C124.268280,989.155212 111.543526,949.993347 111.625359,906.473450 
	C111.747566,841.482483 111.656639,776.491028 111.656387,710.999756 
M1016.697144,831.902832 
	C1018.182739,829.633728 1019.668396,827.364685 1021.154053,825.095642 
	C1020.582092,824.780457 1020.010193,824.465332 1019.438293,824.150208 
	C1018.290527,826.765442 1017.142822,829.380737 1015.581787,832.242798 
	C1015.598328,832.596558 1015.614868,832.950378 1015.631470,833.304138 
	C1015.756653,832.871765 1015.881836,832.439392 1016.697144,831.902832 
M990.625854,873.716797 
	C992.766785,870.160217 994.907715,866.603638 997.744995,862.955261 
	C1001.512451,856.981628 1005.279907,851.007935 1009.449829,844.764404 
	C1009.429565,844.397583 1009.409363,844.030701 1009.389038,843.663879 
	C1009.240601,844.090881 1009.092163,844.517883 1008.247437,845.046265 
	C1004.484497,851.020386 1000.721497,856.994507 996.362549,863.281860 
	C994.234131,866.847290 992.105713,870.412720 989.330139,874.051758 
	C988.631470,874.706848 987.932739,875.361938 987.234009,876.017029 
	C987.647705,876.325867 988.061401,876.634705 988.475098,876.943542 
	C988.990723,875.969604 989.506287,874.995728 990.625854,873.716797 
M539.790161,897.725525 
	C553.976379,915.802429 568.142761,933.894958 582.355774,951.950745 
	C592.211121,964.470886 609.681763,964.717346 619.920959,952.394470 
	C624.493958,946.890808 628.665222,941.055542 633.147644,935.474182 
	C676.425842,881.584656 719.693298,827.686340 763.042053,773.853577 
	C795.106506,734.034302 827.354797,694.362976 859.398376,654.526917 
	C897.287476,607.423828 935.054688,560.222534 972.852722,513.046265 
	C984.784912,498.153442 985.468384,487.288147 974.727783,472.262207 
	C943.254395,428.231415 911.563599,384.356049 880.024658,340.372009 
	C871.606995,328.632782 860.571533,323.339020 845.919983,323.358429 
	C682.932861,323.574371 519.945068,323.608368 356.958069,323.354340 
	C341.107208,323.329651 329.668610,329.079498 320.705261,341.980164 
	C301.133301,370.149384 281.033875,397.951935 261.174957,425.922058 
	C249.123520,442.895752 236.918503,459.765686 225.168152,476.945984 
	C218.111938,487.262909 218.773346,498.412781 226.122971,508.626984 
	C228.261841,511.599426 230.497253,514.507935 232.796295,517.358765 
	C281.821991,578.152100 330.854828,638.939636 379.903595,699.714417 
	C433.032959,765.545349 486.180084,831.362000 539.790161,897.725525 
M340.787628,885.875854 
	C342.616425,890.856750 344.473633,895.827515 346.260101,900.823547 
	C346.986145,902.854065 347.308655,905.068909 348.286316,906.955505 
	C348.959900,908.255371 350.477295,910.012573 351.556641,909.971313 
	C352.785278,909.924316 354.345551,908.316223 355.041016,907.004578 
	C356.032898,905.133850 356.480865,902.941406 356.968414,900.841614 
	C362.132935,878.598389 375.294617,864.016479 397.653076,858.157654 
	C400.058014,857.527466 402.522003,856.882019 404.726715,855.779846 
	C408.989960,853.648621 409.164856,850.260925 405.035736,847.981628 
	C402.457611,846.558350 399.497803,845.751282 396.633118,844.934875 
	C378.607635,839.798035 365.867523,828.885254 359.456238,811.051453 
	C357.881287,806.670532 356.674286,802.153442 354.997437,797.815186 
	C354.477631,796.470459 352.965149,795.509399 351.907135,794.372681 
	C350.750519,795.452026 349.258759,796.343201 348.520721,797.657593 
	C347.563782,799.361938 347.100006,801.376099 346.608673,803.303955 
	C341.176666,824.616638 328.224335,838.674377 306.864624,844.695679 
	C304.143372,845.462769 301.305511,846.112427 298.852386,847.431519 
	C297.184479,848.328369 294.970367,850.358521 295.045380,851.773438 
	C295.128723,853.346375 297.273132,855.309448 298.988495,856.180298 
	C301.614044,857.513184 304.630066,858.092285 307.498749,858.928284 
	C322.084717,863.178711 333.417328,871.494141 340.787628,885.875854 
M321.923065,752.374939 
	C323.496674,751.842712 325.291656,751.619385 326.583344,750.693726 
	C327.946991,749.716492 329.672211,748.075989 329.682709,746.713318 
	C329.692780,745.403259 327.951660,743.644897 326.546387,742.863159 
	C324.559021,741.757812 322.203094,741.247925 319.953186,740.692261 
	C298.592621,735.415955 285.148468,722.197754 279.690063,700.841187 
	C279.036194,698.282837 278.096588,695.756165 276.935669,693.388245 
	C276.440247,692.377747 274.961060,691.119324 274.062714,691.216003 
	C272.859558,691.345459 271.294952,692.441895 270.756500,693.547363 
	C269.530182,696.065125 268.738739,698.812927 267.938690,701.517029 
	C262.138275,721.122192 249.536179,733.839600 229.792526,739.409729 
	C226.916153,740.221191 223.949326,740.951721 221.313187,742.289124 
	C219.603271,743.156555 217.267761,745.086731 217.303070,746.487976 
	C217.342697,748.060913 219.465363,750.086853 221.171738,750.991760 
	C223.624084,752.292236 226.496384,752.844604 229.229156,753.565735 
	C250.182587,759.094360 261.742279,773.685120 267.869781,793.532410 
	C268.750244,796.384216 269.409363,799.320557 270.523041,802.075500 
	C270.931091,803.084778 272.347809,804.279968 273.328430,804.301575 
	C274.360779,804.324402 275.922089,803.273560 276.371246,802.289734 
	C277.465576,799.892578 278.156403,797.290161 278.823212,794.722046 
	C284.638153,772.326172 298.009766,757.554565 321.923065,752.374939 
M966.165466,760.555115 
	C972.435547,757.963196 978.696899,755.350098 984.979797,752.789612 
	C987.580017,751.729919 990.468872,751.164551 992.790161,749.688293 
	C995.741760,747.811157 995.655762,745.206482 992.473206,743.483032 
	C990.310120,742.311646 987.889221,741.482178 985.485962,740.909546 
	C963.534058,735.678711 949.630554,722.263550 943.880127,700.398987 
	C943.249268,698.000183 942.388062,695.620667 941.286072,693.405090 
	C940.774292,692.376160 939.357544,691.046326 938.478088,691.133606 
	C937.266785,691.253784 935.714600,692.344971 935.133728,693.452820 
	C934.071106,695.479614 933.512512,697.796753 932.918762,700.039185 
	C927.699402,719.752319 915.805481,733.086853 895.994629,738.981201 
	C892.177979,740.116821 888.338562,741.320129 884.730591,742.974121 
	C880.675110,744.833130 880.595581,748.393494 884.615234,750.330994 
	C887.873596,751.901550 891.479797,752.801880 894.991333,753.786926 
	C911.524170,758.424377 922.812683,768.949280 929.291321,784.640015 
	C931.434875,789.831421 932.629395,795.408203 934.573975,800.692383 
	C935.116699,802.167175 937.059387,804.411072 937.884094,804.222412 
	C939.457336,803.862549 940.824280,802.121338 942.003540,800.722961 
	C942.581543,800.037598 942.535828,798.832764 942.791748,797.868164 
	C946.664062,783.269897 952.518799,769.892212 966.165466,760.555115 
M598.601807,309.052887 
	C602.144653,311.695251 603.870667,309.333282 604.890625,306.446167 
	C606.213928,302.700348 606.997559,298.767975 608.155945,294.959198 
	C613.461182,277.513977 624.444946,265.526642 642.026917,259.950989 
	C644.880127,259.046143 647.930542,258.572479 650.575745,257.264496 
	C652.563477,256.281586 654.047974,254.281158 655.756531,252.733719 
	C653.994629,251.033463 652.479675,248.883102 650.408325,247.746994 
	C647.825623,246.330444 644.795471,245.714523 641.939148,244.814316 
	C626.913086,240.078476 616.164734,230.568405 610.151123,215.975433 
	C607.937927,210.604736 606.372742,204.968765 604.223145,199.568802 
	C603.704102,198.264954 602.021484,196.572617 600.903137,196.593857 
	C599.738953,196.615997 598.173828,198.291977 597.561096,199.606903 
	C596.449646,201.992065 595.844421,204.626770 595.149719,207.190323 
	C590.104187,225.809067 578.463745,238.203720 560.194458,244.403915 
	C556.416260,245.686142 552.579529,246.883667 548.985840,248.578445 
	C547.558411,249.251633 545.836182,251.185242 545.858154,252.518524 
	C545.880371,253.867722 547.653687,255.617142 549.090881,256.413177 
	C551.235168,257.600891 553.719055,258.253265 556.124756,258.878754 
	C574.465271,263.647308 586.693970,275.062286 593.055786,292.814117 
	C594.901550,297.964417 596.462097,303.216888 598.601807,309.052887 
M1010.351074,840.429016 
	C1010.422668,840.724548 1010.466797,841.031250 1010.580078,841.309814 
	C1010.622070,841.413147 1010.926392,841.527527 1010.941956,841.507263 
	C1012.317627,839.711426 1013.676697,837.902832 1015.036987,836.095154 
	C1014.584351,835.783020 1014.131775,835.470886 1013.679199,835.158752 
	C1012.653931,836.718018 1011.628723,838.277283 1010.351074,840.429016 
M982.662598,881.964233 
	C983.041870,882.459351 983.421143,882.954407 983.800476,883.449524 
	C984.847107,881.964050 985.893738,880.478577 986.940369,878.993103 
	C986.595886,878.765930 986.251404,878.538696 985.906921,878.311523 
	C984.964844,879.359619 984.022766,880.407715 982.662598,881.964233 
M979.767273,887.604858 
	C980.444214,887.123169 981.121155,886.641479 981.798096,886.159790 
	C981.482361,885.835938 981.166626,885.512085 980.850952,885.188171 
	C980.353821,885.854004 979.856689,886.519836 979.767273,887.604858 
M977.414124,889.485413 
	C977.414124,889.485413 977.525269,889.419373 977.414124,889.485413 
z"/>
<path fill="var(--background-color-two)" opacity="1.000000" stroke="none" 
	d="
M539.554810,897.455200 
	C486.180084,831.362000 433.032959,765.545349 379.903595,699.714417 
	C330.854828,638.939636 281.821991,578.152100 232.796295,517.358765 
	C230.497253,514.507935 228.261841,511.599426 226.122971,508.626984 
	C218.773346,498.412781 218.111938,487.262909 225.168152,476.945984 
	C236.918503,459.765686 249.123520,442.895752 261.174957,425.922058 
	C281.033875,397.951935 301.133301,370.149384 320.705261,341.980164 
	C329.668610,329.079498 341.107208,323.329651 356.958069,323.354340 
	C519.945068,323.608368 682.932861,323.574371 845.919983,323.358429 
	C860.571533,323.339020 871.606995,328.632782 880.024658,340.372009 
	C911.563599,384.356049 943.254395,428.231415 974.727783,472.262207 
	C985.468384,487.288147 984.784912,498.153442 972.852722,513.046265 
	C935.054688,560.222534 897.287476,607.423828 859.398376,654.526917 
	C827.354797,694.362976 795.106506,734.034302 763.042053,773.853577 
	C719.693298,827.686340 676.425842,881.584656 633.147644,935.474182 
	C628.665222,941.055542 624.493958,946.890808 619.920959,952.394470 
	C609.681763,964.717346 592.211121,964.470886 582.355774,951.950745 
	C568.142761,933.894958 553.976379,915.802429 539.554810,897.455200 
M557.029663,855.638916 
	C557.635498,856.179932 558.241333,856.720886 559.107117,857.864685 
	C561.082031,860.237793 563.056885,862.610962 565.098877,865.603699 
	C565.692688,866.138184 566.286499,866.672668 567.038513,867.738586 
	C567.422485,868.130737 567.806458,868.522827 568.303894,869.593140 
	C569.575317,871.223267 570.846802,872.853333 572.375366,874.813049 
	C572.904053,873.645569 573.225403,873.273132 573.140686,873.068848 
	C572.563293,871.675659 571.900574,870.317749 571.063721,868.211060 
	C567.583252,859.513855 564.299622,850.731689 560.588867,842.133911 
	C542.776733,800.863098 524.905151,759.617737 506.949463,718.409180 
	C478.488434,653.090576 449.915619,587.820496 421.507507,522.478882 
	C419.879974,518.735413 417.876465,517.351013 413.719849,517.377197 
	C378.393311,517.599792 343.065216,517.581482 307.737610,517.630310 
	C299.999542,517.641052 292.261475,517.631897 282.931427,517.631897 
	C287.205231,522.914062 290.589874,527.098022 293.975281,531.281372 
	C318.486053,561.569153 342.972595,591.876526 367.513306,622.140015 
	C409.464600,673.874084 451.417480,725.606995 493.434570,777.287598 
	C514.545349,803.253662 535.798645,829.103821 557.029663,855.638916 
M539.436340,694.959839 
	C559.883789,741.732178 580.331238,788.504456 600.778687,835.276794 
	C601.223145,835.338684 601.667603,835.400574 602.112122,835.462463 
	C648.382874,729.828735 694.653625,624.195007 741.209839,517.909668 
	C648.149658,517.909668 555.980652,517.909668 462.768646,517.909668 
	C488.382507,577.045715 513.766602,635.651245 539.436340,694.959839 
M714.190857,421.319427 
	C701.702026,403.439545 689.202393,385.567261 676.736145,367.671631 
	C674.863098,364.982819 672.968445,363.131866 669.132690,363.149506 
	C623.807251,363.358002 578.480835,363.397247 533.154907,363.338562 
	C530.131104,363.334656 528.351501,364.153076 526.635071,366.658295 
	C502.731567,401.545837 478.709930,436.352386 454.759491,471.207764 
	C453.521362,473.009583 452.663757,475.072815 451.453430,477.343750 
	C552.285706,477.343750 652.300598,477.343750 753.182617,477.343750 
	C740.030701,458.423676 727.331848,440.155334 714.190857,421.319427 
M649.315491,826.838318 
	C642.784180,841.782776 636.252930,856.727173 629.538513,872.090576 
	C634.230713,870.682495 914.168091,526.745483 918.307983,517.822083 
	C917.433533,517.737183 916.656860,517.595215 915.880249,517.595886 
	C873.387756,517.632202 830.895264,517.710815 788.402893,517.658630 
	C785.599121,517.655151 784.348755,518.575806 783.254883,521.091370 
	C768.920898,554.055420 754.470093,586.968811 740.044067,619.892883 
	C709.917847,688.649231 679.788940,757.404358 649.315491,826.838318 
M914.167480,454.322418 
	C896.934204,430.379761 879.700867,406.437103 862.010071,381.858856 
	C842.416809,414.159607 823.388550,445.528931 804.039612,477.426941 
	C846.827393,477.426941 888.180725,477.426941 930.588440,477.426941 
	C924.927002,469.445618 919.765442,462.168976 914.167480,454.322418 
M314.589233,419.047058 
	C300.929596,438.336304 287.269958,457.625580 273.244293,477.431671 
	C315.622101,477.431671 356.797272,477.431671 399.034943,477.431671 
	C379.601135,445.182373 360.567230,413.596710 341.201111,381.459686 
	C332.036926,394.402954 323.520721,406.431061 314.589233,419.047058 
M807.918579,396.450989 
	C814.712830,385.742706 821.507080,375.034454 828.768555,363.589844 
	C792.192627,363.589844 756.902588,363.589844 720.914001,363.589844 
	C740.044678,390.989136 758.762329,417.796875 777.876343,445.172302 
	C788.023376,428.705963 797.774292,412.882385 807.918579,396.450989 
M460.719086,394.239502 
	C467.639648,384.197479 474.560181,374.155457 481.868164,363.551270 
	C446.102081,363.551270 411.154053,363.551270 375.187988,363.551270 
	C391.936127,391.085693 408.253754,417.912354 425.001007,445.445374 
	C437.298431,427.801788 448.793274,411.309723 460.719086,394.239502 
z"/>
<path fill="var(--background-color-two)" opacity="1.000000" stroke="none" 
	d="
M340.614014,885.545959 
	C333.417328,871.494141 322.084717,863.178711 307.498749,858.928284 
	C304.630066,858.092285 301.614044,857.513184 298.988495,856.180298 
	C297.273132,855.309448 295.128723,853.346375 295.045380,851.773438 
	C294.970367,850.358521 297.184479,848.328369 298.852386,847.431519 
	C301.305511,846.112427 304.143372,845.462769 306.864624,844.695679 
	C328.224335,838.674377 341.176666,824.616638 346.608673,803.303955 
	C347.100006,801.376099 347.563782,799.361938 348.520721,797.657593 
	C349.258759,796.343201 350.750519,795.452026 351.907166,794.372681 
	C352.965149,795.509399 354.477631,796.470459 354.997437,797.815186 
	C356.674286,802.153442 357.881287,806.670532 359.456238,811.051453 
	C365.867523,828.885254 378.607635,839.798035 396.633118,844.934875 
	C399.497803,845.751282 402.457611,846.558350 405.035736,847.981628 
	C409.164856,850.260925 408.989960,853.648621 404.726715,855.779846 
	C402.522003,856.882019 400.058014,857.527466 397.653076,858.157654 
	C375.294617,864.016479 362.132935,878.598389 356.968414,900.841614 
	C356.480865,902.941406 356.032898,905.133850 355.041016,907.004578 
	C354.345551,908.316223 352.785278,909.924316 351.556641,909.971313 
	C350.477295,910.012573 348.959900,908.255371 348.286316,906.955505 
	C347.308655,905.068909 346.986145,902.854065 346.260101,900.823547 
	C344.473633,895.827515 342.616425,890.856750 340.614014,885.545959 
z"/>
<path fill="var(--background-color-two)" opacity="1.000000" stroke="none" 
	d="
M321.544495,752.490601 
	C298.009766,757.554565 284.638153,772.326172 278.823212,794.722046 
	C278.156403,797.290161 277.465576,799.892578 276.371246,802.289734 
	C275.922089,803.273560 274.360779,804.324402 273.328430,804.301575 
	C272.347809,804.279968 270.931091,803.084778 270.523041,802.075500 
	C269.409363,799.320557 268.750244,796.384216 267.869781,793.532410 
	C261.742279,773.685120 250.182587,759.094360 229.229156,753.565735 
	C226.496384,752.844604 223.624084,752.292236 221.171738,750.991760 
	C219.465363,750.086853 217.342697,748.060913 217.303070,746.487976 
	C217.267761,745.086731 219.603271,743.156555 221.313187,742.289124 
	C223.949326,740.951721 226.916153,740.221191 229.792526,739.409729 
	C249.536179,733.839600 262.138275,721.122192 267.938690,701.517029 
	C268.738739,698.812927 269.530182,696.065125 270.756500,693.547363 
	C271.294952,692.441895 272.859558,691.345459 274.062714,691.216003 
	C274.961060,691.119324 276.440247,692.377747 276.935669,693.388245 
	C278.096588,695.756165 279.036194,698.282837 279.690063,700.841187 
	C285.148468,722.197754 298.592621,735.415955 319.953186,740.692261 
	C322.203094,741.247925 324.559021,741.757812 326.546387,742.863159 
	C327.951660,743.644897 329.692780,745.403259 329.682709,746.713318 
	C329.672211,748.075989 327.946991,749.716492 326.583344,750.693726 
	C325.291656,751.619385 323.496674,751.842712 321.544495,752.490601 
z"/>
<path fill="var(--background-color-two)" opacity="1.000000" stroke="none" 
	d="
M965.857788,760.746460 
	C952.518799,769.892212 946.664062,783.269897 942.791748,797.868164 
	C942.535828,798.832764 942.581543,800.037598 942.003540,800.722961 
	C940.824280,802.121338 939.457336,803.862549 937.884094,804.222412 
	C937.059387,804.411072 935.116699,802.167175 934.573975,800.692383 
	C932.629395,795.408203 931.434875,789.831421 929.291321,784.640015 
	C922.812683,768.949280 911.524170,758.424377 894.991333,753.786926 
	C891.479797,752.801880 887.873596,751.901550 884.615234,750.330994 
	C880.595581,748.393494 880.675110,744.833130 884.730591,742.974121 
	C888.338562,741.320129 892.177979,740.116821 895.994629,738.981201 
	C915.805481,733.086853 927.699402,719.752319 932.918762,700.039185 
	C933.512512,697.796753 934.071106,695.479614 935.133728,693.452820 
	C935.714600,692.344971 937.266785,691.253784 938.478088,691.133606 
	C939.357544,691.046326 940.774292,692.376160 941.286072,693.405090 
	C942.388062,695.620667 943.249268,698.000183 943.880127,700.398987 
	C949.630554,722.263550 963.534058,735.678711 985.485962,740.909546 
	C987.889221,741.482178 990.310120,742.311646 992.473206,743.483032 
	C995.655762,745.206482 995.741760,747.811157 992.790161,749.688293 
	C990.468872,751.164551 987.580017,751.729919 984.979797,752.789612 
	C978.696899,755.350098 972.435547,757.963196 965.857788,760.746460 
z"/>
<path fill="var(--background-color-two)" opacity="1.000000" stroke="none" 
	d="
M598.377625,308.737701 
	C596.462097,303.216888 594.901550,297.964417 593.055786,292.814117 
	C586.693970,275.062286 574.465271,263.647308 556.124756,258.878754 
	C553.719055,258.253265 551.235168,257.600891 549.090881,256.413177 
	C547.653687,255.617142 545.880371,253.867722 545.858154,252.518524 
	C545.836182,251.185242 547.558411,249.251633 548.985840,248.578445 
	C552.579529,246.883667 556.416260,245.686142 560.194458,244.403915 
	C578.463745,238.203720 590.104187,225.809067 595.149719,207.190323 
	C595.844421,204.626770 596.449646,201.992065 597.561096,199.606903 
	C598.173828,198.291977 599.738953,196.615997 600.903137,196.593857 
	C602.021484,196.572617 603.704102,198.264954 604.223145,199.568802 
	C606.372742,204.968765 607.937927,210.604736 610.151123,215.975433 
	C616.164734,230.568405 626.913086,240.078476 641.939148,244.814316 
	C644.795471,245.714523 647.825623,246.330444 650.408325,247.746994 
	C652.479675,248.883102 653.994629,251.033463 655.756531,252.733719 
	C654.047974,254.281158 652.563477,256.281586 650.575745,257.264496 
	C647.930542,258.572479 644.880127,259.046143 642.026917,259.950989 
	C624.444946,265.526642 613.461182,277.513977 608.155945,294.959198 
	C606.997559,298.767975 606.213928,302.700348 604.890625,306.446167 
	C603.870667,309.333282 602.144653,311.695251 598.377625,308.737701 
z"/>
<path fill="var(--text-color-two)" opacity="1.000000" stroke="none" 
	d="
M1009.047363,845.034302 
	C1005.279907,851.007935 1001.512451,856.981628 997.374939,862.980713 
	C997.004883,863.006226 996.958496,862.968567 996.958496,862.968628 
	C1000.721497,856.994507 1004.484497,851.020386 1008.620605,845.018982 
	C1008.993774,844.991699 1009.047363,845.034302 1009.047363,845.034302 
z"/>
<path fill="var(--text-color-two)" opacity="1.000000" stroke="none" 
	d="
M997.026733,863.026611 
	C994.907715,866.603638 992.766785,870.160217 990.312805,873.858337 
	C989.999756,873.999878 989.977295,873.978149 989.977295,873.978149 
	C992.105713,870.412720 994.234131,866.847290 996.660522,863.125244 
	C996.958496,862.968567 997.004883,863.006226 997.026733,863.026611 
z"/>
<path fill="var(--text-color-two)" opacity="1.000000" stroke="none" 
	d="
M1015.995117,831.996033 
	C1017.142822,829.380737 1018.290527,826.765442 1019.438293,824.150208 
	C1020.010193,824.465332 1020.582092,824.780457 1021.154053,825.095642 
	C1019.668396,827.364685 1018.182739,829.633728 1016.348633,831.951416 
	C1016.000122,832.000000 1015.995117,831.996033 1015.995117,831.996033 
z"/>
<path fill="var(--text-color-two)" opacity="1.000000" stroke="none" 
	d="
M1010.477295,840.132812 
	C1011.628723,838.277283 1012.653931,836.718018 1013.679199,835.158752 
	C1014.131775,835.470886 1014.584351,835.783020 1015.036987,836.095154 
	C1013.676697,837.902832 1012.317627,839.711426 1010.941956,841.507263 
	C1010.926392,841.527527 1010.622070,841.413147 1010.580078,841.309814 
	C1010.466797,841.031250 1010.422668,840.724548 1010.477295,840.132812 
z"/>
<path fill="var(--text-color-two)" opacity="1.000000" stroke="none" 
	d="
M982.871643,881.710083 
	C984.022766,880.407715 984.964844,879.359619 985.906921,878.311523 
	C986.251404,878.538696 986.595886,878.765930 986.940369,878.993103 
	C985.893738,880.478577 984.847107,881.964050 983.800476,883.449524 
	C983.421143,882.954407 983.041870,882.459351 982.871643,881.710083 
z"/>
<path fill="var(--text-color-two)" opacity="1.000000" stroke="none" 
	d="
M990.010803,874.010864 
	C989.506287,874.995728 988.990723,875.969604 988.475098,876.943542 
	C988.061401,876.634705 987.647705,876.325867 987.234009,876.017029 
	C987.932739,875.361938 988.631470,874.706848 989.653687,874.014954 
	C989.977295,873.978149 989.999756,873.999878 990.010803,874.010864 
z"/>
<path fill="var(--text-color-two)" opacity="1.000000" stroke="none" 
	d="
M979.563416,887.395264 
	C979.856689,886.519836 980.353821,885.854004 980.850952,885.188171 
	C981.166626,885.512085 981.482361,885.835938 981.798096,886.159790 
	C981.121155,886.641479 980.444214,887.123169 979.563416,887.395264 
z"/>
<path fill="var(--text-color-two)" opacity="1.000000" stroke="none" 
	d="
M1016.003540,832.003479 
	C1015.881836,832.439392 1015.756653,832.871765 1015.631470,833.304138 
	C1015.614868,832.950378 1015.598328,832.596558 1015.788452,832.119385 
	C1015.995117,831.996033 1016.000122,832.000000 1016.003540,832.003479 
z"/>
<path fill="var(--text-color-two)" opacity="1.000000" stroke="none" 
	d="
M1008.968750,844.968323 
	C1009.092163,844.517883 1009.240601,844.090881 1009.389038,843.663879 
	C1009.409363,844.030701 1009.429565,844.397583 1009.248596,844.899353 
	C1009.047363,845.034302 1008.993774,844.991699 1008.968750,844.968323 
z"/>
<path fill="var(--text-color-two)" opacity="1.000000" stroke="none" 
	d="
M977.469727,889.452393 
	C977.525269,889.419373 977.414124,889.485413 977.469727,889.452393 
z"/>
<path fill="var(--text-color-two)" opacity="1.000000" stroke="none" 
	d="
M539.293457,694.608276 
	C513.766602,635.651245 488.382507,577.045715 462.768646,517.909668 
	C555.980652,517.909668 648.149658,517.909668 741.209839,517.909668 
	C694.653625,624.195007 648.382874,729.828735 602.112122,835.462463 
	C601.667603,835.400574 601.223145,835.338684 600.778687,835.276794 
	C580.331238,788.504456 559.883789,741.732178 539.293457,694.608276 
z"/>
<path fill="var(--text-color-two)" opacity="1.000000" stroke="none" 
	d="
M714.411926,421.603210 
	C727.331848,440.155334 740.030701,458.423676 753.182617,477.343750 
	C652.300598,477.343750 552.285706,477.343750 451.453430,477.343750 
	C452.663757,475.072815 453.521362,473.009583 454.759491,471.207764 
	C478.709930,436.352386 502.731567,401.545837 526.635071,366.658295 
	C528.351501,364.153076 530.131104,363.334656 533.154907,363.338562 
	C578.480835,363.397247 623.807251,363.358002 669.132690,363.149506 
	C672.968445,363.131866 674.863098,364.982819 676.736145,367.671631 
	C689.202393,385.567261 701.702026,403.439545 714.411926,421.603210 
z"/>
<path fill="var(--text-color-two)" opacity="1.000000" stroke="none" 
	d="
M568.190430,868.914978 
	C567.806458,868.522827 567.422485,868.130737 566.998779,867.129883 
	C566.316650,866.008789 565.674255,865.496399 565.031799,864.984009 
	C563.056885,862.610962 561.082031,860.237793 559.002441,857.218994 
	C558.260986,856.050964 557.624268,855.528687 556.987488,855.006409 
	C535.798645,829.103821 514.545349,803.253662 493.434570,777.287598 
	C451.417480,725.606995 409.464600,673.874084 367.513306,622.140015 
	C342.972595,591.876526 318.486053,561.569153 293.975281,531.281372 
	C290.589874,527.098022 287.205231,522.914062 282.931427,517.631897 
	C292.261475,517.631897 299.999542,517.641052 307.737610,517.630310 
	C343.065216,517.581482 378.393311,517.599792 413.719849,517.377197 
	C417.876465,517.351013 419.879974,518.735413 421.507507,522.478882 
	C449.915619,587.820496 478.488434,653.090576 506.949463,718.409180 
	C524.905151,759.617737 542.776733,800.863098 560.588867,842.133911 
	C564.299622,850.731689 567.583252,859.513855 570.781494,868.630859 
	C569.729614,869.005493 568.960022,868.960205 568.190430,868.914978 
z"/>
<path fill="var(--text-color-two)" opacity="1.000000" stroke="none" 
	d="
M649.488342,826.499146 
	C679.788940,757.404358 709.917847,688.649231 740.044067,619.892883 
	C754.470093,586.968811 768.920898,554.055420 783.254883,521.091370 
	C784.348755,518.575806 785.599121,517.655151 788.402893,517.658630 
	C830.895264,517.710815 873.387756,517.632202 915.880249,517.595886 
	C916.656860,517.595215 917.433533,517.737183 918.307983,517.822083 
	C914.168091,526.745483 634.230713,870.682495 629.538513,872.090576 
	C636.252930,856.727173 642.784180,841.782776 649.488342,826.499146 
z"/>
<path fill="var(--text-color-two)" opacity="1.000000" stroke="none" 
	d="
M914.385681,454.607361 
	C919.765442,462.168976 924.927002,469.445618 930.588440,477.426941 
	C888.180725,477.426941 846.827393,477.426941 804.039612,477.426941 
	C823.388550,445.528931 842.416809,414.159607 862.010071,381.858856 
	C879.700867,406.437103 896.934204,430.379761 914.385681,454.607361 
z"/>
<path fill="var(--text-color-two)" opacity="1.000000" stroke="none" 
	d="
M314.796875,418.753113 
	C323.520721,406.431061 332.036926,394.402954 341.201111,381.459686 
	C360.567230,413.596710 379.601135,445.182373 399.034943,477.431671 
	C356.797272,477.431671 315.622101,477.431671 273.244293,477.431671 
	C287.269958,457.625580 300.929596,438.336304 314.796875,418.753113 
z"/>
<path fill="var(--text-color-two)" opacity="1.000000" stroke="none" 
	d="
M807.721924,396.754883 
	C797.774292,412.882385 788.023376,428.705963 777.876343,445.172302 
	C758.762329,417.796875 740.044678,390.989136 720.914001,363.589844 
	C756.902588,363.589844 792.192627,363.589844 828.768555,363.589844 
	C821.507080,375.034454 814.712830,385.742706 807.721924,396.754883 
z"/>
<path fill="var(--text-color-two)" opacity="1.000000" stroke="none" 
	d="
M460.503601,394.528564 
	C448.793274,411.309723 437.298431,427.801788 425.001007,445.445374 
	C408.253754,417.912354 391.936127,391.085693 375.187988,363.551270 
	C411.154053,363.551270 446.102081,363.551270 481.868164,363.551270 
	C474.560181,374.155457 467.639648,384.197479 460.503601,394.528564 
z"/>
<path fill="var(--text-color-two)" opacity="1.000000" stroke="none" 
	d="
M568.247192,869.254028 
	C568.960022,868.960205 569.729614,869.005493 570.882324,868.999634 
	C571.900574,870.317749 572.563293,871.675659 573.140686,873.068848 
	C573.225403,873.273132 572.904053,873.645569 572.375366,874.813049 
	C570.846802,872.853333 569.575317,871.223267 568.247192,869.254028 
z"/>
<path fill="var(--text-color-two)" opacity="1.000000" stroke="none" 
	d="
M557.008545,855.322632 
	C557.624268,855.528687 558.260986,856.050964 558.872437,856.917603 
	C558.241333,856.720886 557.635498,856.179932 557.008545,855.322632 
z"/>
<path fill="var(--text-color-two)" opacity="1.000000" stroke="none" 
	d="
M565.065308,865.293823 
	C565.674255,865.496399 566.316650,866.008789 566.919678,866.864136 
	C566.286499,866.672668 565.692688,866.138184 565.065308,865.293823 
z"/>
</svg>